<svg width="59" height="40" viewBox="0 0 59 40" fill="none" xmlns="http://www.w3.org/2000/svg">
<path d="M17.3709 0.171289C14.1799 0.609261 11.1266 1.79804 8.54887 3.59998C1.25351 8.70548 -1.83732 18.2282 1.10335 26.5747C3.10551 32.2684 7.71047 36.8984 13.304 38.863C18.4596 40.6649 24.003 40.3145 28.9083 37.8869C32.0742 36.3227 34.652 34.0703 36.6041 31.1422C40.8962 24.7353 41.1215 16.3262 37.1672 9.75662C35.4403 6.89103 32.8125 4.30074 29.8969 2.63644C26.1428 0.484126 21.6255 -0.404332 17.3709 0.171289ZM23.0019 6.11519C28.6455 7.34151 32.9627 11.8464 34.0263 17.6276C34.2516 18.8664 34.2265 21.3816 33.9638 22.683C33.1003 27.1128 30.1471 30.9169 26.1053 32.8315C22.3512 34.6084 18.1092 34.671 14.3051 33.0067C11.3894 31.7428 8.89925 29.4403 7.48522 26.7374C6.29644 24.4725 5.83344 22.5955 5.82093 20.0677C5.80842 18.2408 5.90853 17.5525 6.4466 15.7506C7.25998 13.0226 9.137 10.3698 11.5771 8.54281C13.1538 7.35403 15.6816 6.29038 17.6211 6.00257C18.1342 5.92749 18.6973 5.8399 18.8725 5.81487C19.4857 5.70225 21.9633 5.88995 23.0019 6.11519Z" fill="#3F7D24"/>
<path d="M18.272 8.19239C18.0092 8.36758 17.9967 8.4802 17.9967 9.85668V11.3458L17.1583 11.6962C16.5326 11.959 16.0946 12.2718 15.4815 12.8849C14.4053 13.9486 14.0799 14.7369 14.0674 16.2511C14.0549 17.1896 14.0925 17.4023 14.4053 18.003C14.8308 18.8289 15.106 19.1417 15.9319 19.7423C16.7954 20.368 17.3585 20.6558 18.7475 21.1939C20.8497 21.9948 21.6756 22.6455 21.8258 23.584C21.976 24.5725 21.4254 25.1857 20.199 25.3859C19.1479 25.5486 17.8966 25.3484 16.6827 24.8103C15.4815 24.2722 15.0935 24.1846 14.9058 24.4099C14.6806 24.6852 13.9798 27.2755 14.0549 27.5257C14.2051 28.0012 16.1071 28.752 17.2834 28.8021L17.9967 28.8271V30.1661C17.9967 32.0181 17.9967 32.0181 19.9988 32.0181C22.0135 32.0181 22.001 32.0306 22.001 30.0785C22.001 28.9022 22.0385 28.6394 22.1887 28.6394C22.5891 28.6394 24.0532 27.8135 24.5662 27.3005C26.3306 25.5486 26.4808 22.3076 24.9041 20.5933C24.1408 19.7799 23.1022 19.1041 21.8258 18.6161C20.2741 18.028 18.8976 17.2647 18.5473 16.8142C18.2219 16.3887 18.1468 15.6755 18.3721 15.25C18.4471 15.1123 18.76 14.8496 19.0853 14.6619C19.5734 14.3741 19.7986 14.324 20.612 14.324C21.4629 14.324 21.6756 14.3866 22.6642 14.8496C23.2648 15.1249 23.9155 15.4752 24.1158 15.6129C24.5287 15.9132 24.9166 15.9508 25.1043 15.713C25.1669 15.6379 25.4046 14.9246 25.6299 14.1363L26.0303 12.7223L25.7425 12.4345C25.242 11.959 22.6141 11.083 22.1011 11.2207C22.0385 11.2332 22.001 10.62 22.001 9.8692C22.001 7.99218 22.001 7.99218 20.0238 7.99218C18.8976 7.99218 18.4847 8.04223 18.272 8.19239Z" fill="#3F7D24"/>
<path d="M36.6668 4.72615C37.6803 5.81482 38.8191 7.39152 39.6074 8.78051L40.3082 10.0068L46.5149 9.9693L52.7216 9.93176L53.1345 9.63143C53.8603 9.06832 53.9604 8.81805 54.0104 7.26638C54.073 5.56455 53.8853 4.92636 53.1846 4.38828L52.7466 4.05042L44.3625 4.01288L35.9785 3.98785L36.6668 4.72615Z" fill="#3F7D24"/>
<path d="M41.2091 12.2093C41.6846 13.3981 42.2978 15.8507 42.473 17.2898L42.5481 18.0031L49.6557 17.978C56.6132 17.9405 56.7759 17.9405 57.1263 17.6777C57.314 17.5401 57.6018 17.1772 57.7645 16.8768C58.0022 16.4013 58.0397 16.126 58.0397 14.9998C58.0397 13.4732 57.827 12.835 57.1513 12.3595L56.7258 12.0591L48.9174 12.0216C41.4969 11.9966 41.1215 11.9966 41.2091 12.2093Z" fill="#3F7D24"/>
<path d="M42.5479 21.7196C42.4102 23.2587 42.0723 25.1858 41.8346 25.7865C41.747 25.9992 42.0473 26.0117 47.0903 26.0117C53.0467 26.0117 52.9841 26.0242 53.6348 25.1608C53.9476 24.7478 53.9727 24.6227 54.0102 23.2087C54.0478 21.8322 54.0227 21.6445 53.7599 21.1314C53.5722 20.7686 53.2969 20.4682 52.9716 20.293C52.4836 20.0177 52.4085 20.0052 47.5908 20.0052H42.698L42.5479 21.7196Z" fill="#3F7D24"/>
<path d="M40.4081 29.6531C39.9701 30.5666 39.2068 31.918 38.6938 32.6688L37.7803 34.0203H46.1143C55.3742 34.0203 54.9613 34.0578 55.637 33.1694C55.9499 32.7564 55.9749 32.6188 56.0249 31.3049C56.075 29.5905 55.8873 28.9523 55.1865 28.4142L54.7486 28.0764L47.9788 28.0388L41.209 28.0138L40.4081 29.6531Z" fill="#3F7D24"/>
</svg>
